<svg class="icon" viewBox="0 0 1024 1024" version="1.1" xmlns="http://www.w3.org/2000/svg" width="200" height="200"><path d="M128 565.76l312.32 161.28 56.32-161.28-312.32-153.6L128 565.76zM504.32 565.76l53.76 158.72L883.2 563.2 819.2 412.16 504.32 565.76zM76.8 284.16l107.52 128 312.32-163.84-102.4-133.12L76.8 284.16zM921.6 286.72 609.28 117.76l-104.96 133.12L819.2 412.16 921.6 286.72zM166.4 606.72l0 156.16 330.24 156.16L496.64 624.64l-46.08 125.44L166.4 606.72zM506.88 624.64l0 291.84 330.24-156.16 0-153.6-284.16 145.92L506.88 624.64z" fill="#CFCFCF"></path></svg>