<svg xmlns="http://www.w3.org/2000/svg" viewBox="0 0 23.82513427734375 23.941761016845703" fill="none"><g opacity="1" transform="translate(0 0.0000152587890625) rotate(0)"><g opacity="1" transform="translate(0 -0.0000152587890625)  rotate(0)"><g opacity="1" transform="translate(0 0.0000152587890625)  rotate(0)"><g opacity="1" transform="translate(2.8666259765625 2.866622161865234)  rotate(0)"><path fill-rule="evenodd" style="fill:#FFFFFF" opacity="0.9"                          d="M0.0001,8.17c0,-4.51 3.66,-8.17 8.17,-8.17c4.51,0 8.16,3.66 8.16,8.17c0,2.0325 -0.7413,3.8904 -1.9686,5.3182l4.797,4.797l-0.99,0.9899l-4.807,-4.807c-1.4102,1.1634 -3.2185,1.8619 -5.1914,1.8619c-4.51,0 -8.17,-3.65 -8.17,-8.16zM8.17,14.93c3.73,0 6.76,-3.03 6.76,-6.76c0,-3.74 -3.03,-6.77 -6.76,-6.77c-3.74,0 -6.77,3.03 -6.77,6.77c0,3.73 3.03,6.76 6.77,6.76z"></path></g></g></g></g></svg>