<svg xmlns="http://www.w3.org/2000/svg" width="400" height="400" viewBox="0 0 200 200" fill="none"><path fill-rule="evenodd" fill="#062642" opacity="1" d="M153.46,121.9c-2.66,2.7 -4.79,5.9 -7.8,8.41c-3.5,2.92 -7.04,5.78 -10.6,8.6c-7.88,6.22 6.8,17.36 11.83,19.26c3.12,1.18 3,5.44 0.02,6.61c-4.71,1.83 -8.65,1.33 -13.84,0.26c-8.79,-1.82 -15.51,-6.74 -20.16,-14.76c-0.6,-1.05 -1.82,-1.56 -2.99,-1.27c-25.28,6.32 -48.99,2.42 -71.14,-11.7c-11.4,-7.26 -22.81,-19.06 -28.25,-32.05c-1.09,-2.62 -0.34,-4.9 0.82,-7.26c13.62,-27.56 40.74,-43.72 71.59,-45.6c0.52,-0.03 0.93,-0.26 1.23,-0.69c8.32,-12.13 19.55,-18.03 33.69,-17.7c8.71,0.2 16.89,3.93 24.44,8.41c0.86,0.51 1.42,1.4 1.52,2.38c0.1,0.99 -0.26,1.97 -0.99,2.64c-3.94,3.63 -10.64,9.32 -12.79,14.65c-0.23,0.58 -0.08,1.02 0.47,1.32c8.89,4.7 16.56,10.92 23.01,18.65c0.28,0.35 0.72,0.54 1.16,0.52c0.45,-0.02 0.87,-0.24 1.14,-0.61c4.2,-5.92 22.3,-28.87 31,-25.89c1.01,0.35 1.85,1.09 2.32,2.06c0.47,0.97 0.54,2.09 0.19,3.11c-9.29,27.5 -9.82,50.45 0.42,77.83c0.38,1.02 0.32,2.15 -0.16,3.12c-0.49,0.97 -1.36,1.69 -2.4,1.98c-9.07,2.6 -25.26,-15.1 -30.01,-21.96c-1.11,-1.62 -2.35,-1.73 -3.72,-0.32zM94.83,51.41c-0.15,0.15 -0.2,0.36 -0.14,0.56c0.07,0.19 0.23,0.33 0.43,0.36c10.46,1.59 17.5,2.53 25.69,6.65c0.23,0.12 0.43,0.08 0.6,-0.12l9.39,-11.92c0.04,-0.05 0.06,-0.12 0.05,-0.19c-0.01,-0.07 -0.06,-0.12 -0.11,-0.15c-13.38,-7.28 -25.35,-5.68 -35.91,4.81zM97.47,104.8l4.22,6.33c1.63,9.56 -1.24,16.08 -8.64,19.57c-4.83,2.26 -11.26,1.61 -16.82,1.5c-0.55,-0.01 -0.98,0.22 -1.29,0.67l-5.13,7.67c-0.1,0.13 -0.11,0.31 -0.05,0.47c0.07,0.15 0.21,0.27 0.37,0.3c29.83,6.38 60.17,-2.88 79.23,-27.28c6,-7.68 6.17,-15.51 0.51,-23.5c-19.07,-24.89 -51.72,-34.25 -82.16,-27.42c-0.29,0.07 -0.52,0.28 -0.61,0.56c-0.09,0.28 -0.03,0.58 0.16,0.81c8.9,10.25 13.7,22.22 14.43,35.91c0.03,0.52 0.3,0.75 0.83,0.71c3.53,-0.33 6.99,-0.04 10.38,0.87zM19.2,101.74c-0.22,0.48 -0.2,1.03 0.04,1.49c8.56,16.76 23.71,28.77 41.22,35.01c0.32,0.11 0.66,0.01 0.87,-0.25c16.15,-21.24 16.6,-50.76 -2.49,-70.94c-0.35,-0.37 -0.75,-0.46 -1.22,-0.28c-15.69,6.13 -31.43,18.97 -38.42,34.97zM163.45,99.89c-0.27,0.12 -0.44,0.37 -0.47,0.66c-0.02,0.29 0.12,0.57 0.36,0.74l6.04,4.05c1.56,1.04 2.2,2.5 1.91,4.38l-0.21,1.38c-0.32,1.98 -1.32,2.44 -3,1.36l-5.39,-3.41c-0.37,-0.24 -0.7,-0.2 -1,0.12c-1.33,1.43 -1.63,2.76 -0.91,3.99c3.55,6.1 8.99,12.05 16.31,17.88c0.5,0.4 0.65,0.3 0.46,-0.31c-4.08,-12.9 -5.56,-26 -4.45,-39.3l4.14,-20.19c0.15,-0.77 -0.06,-0.9 -0.63,-0.37c-6.07,5.47 -11.53,11.51 -16.39,18.11c-0.36,0.49 -0.41,1 -0.14,1.54l1.07,2.16c0.28,0.54 0.68,0.68 1.22,0.4c2.62,-1.35 6.07,-4.92 8.63,-1.37c-0.44,3.37 -2.96,6.09 -7.55,8.18zM82.63,110.12c-0.45,0.14 -0.71,0.44 -0.81,0.9l-2.34,11.67c-0.08,0.34 0.06,0.55 0.41,0.62c18.95,3.68 16.51,-17.46 2.74,-13.19zM125.15,145.46c-0.06,-0.31 -0.26,-0.58 -0.53,-0.72c-0.28,-0.14 -0.6,-0.15 -0.88,-0.01c-1.63,0.78 -1.97,1.89 -1.03,3.32c1.53,2.33 3.4,4.36 5.62,6.1c0.07,0.08 0.2,0.08 0.28,0.01c0.08,-0.08 0.09,-0.21 0.01,-0.29c-1.77,-2.54 -2.93,-5.34 -3.47,-8.41z"></path><path fill-rule="evenodd" fill="#FFFFFF" opacity="1" d="M94.8277 51.4122C94.6877 51.5522 94.6277 51.7722 94.6977 51.9722C94.7577 52.1622 94.9177 52.3022 95.1177 52.3222C105.578 53.9222 112.618 54.8522 120.808 58.9822C121.048 59.1022 121.248 59.0522 121.408 58.8622L130.798 46.9422C130.838 46.8822 130.858 46.8122 130.848 46.7522C130.838 46.6822 130.798 46.6322 130.738 46.6022C117.358 39.3122 105.398 40.9222 94.8277 51.4122Z"></path><path fill-rule="evenodd" fill="#FFFFFF" opacity="1" d="M67.7072 63.1151C67.4172 63.1751 67.1872 63.3851 67.0972 63.6651C67.0072 63.9451 67.0672 64.2551 67.2572 64.4751C76.1572 74.7351 80.9672 86.7051 81.6872 100.385C81.7172 100.905 81.9972 101.145 82.5172 101.105C86.0472 100.775 89.5072 101.065 92.8972 101.975C92.9172 91.2351 90.5172 80.6551 85.6872 70.2351C85.4672 69.7651 85.4572 69.2351 85.6372 68.7551C85.8172 68.2751 86.1772 67.8851 86.6472 67.6751L87.4172 67.3351C88.6072 66.8051 89.4872 67.1351 90.0372 68.3151C95.6872 80.2251 98.1572 92.3951 97.4672 104.795L101.687 111.125C103.227 111.245 104.847 111.045 106.537 110.535C107.777 98.6951 106.687 86.5551 103.247 74.1351C102.907 72.8851 103.607 71.5951 104.837 71.2151L105.357 71.0551C105.827 70.9151 106.327 70.9651 106.757 71.1951C107.187 71.4351 107.497 71.8251 107.627 72.2951C111.277 85.0751 112.507 97.9251 111.307 110.835L118.687 110.895C119.487 102.935 119.237 94.4251 117.967 85.3551C117.757 83.9251 118.357 83.0451 119.767 82.7151L120.267 82.6051C120.707 82.5051 121.177 82.5851 121.557 82.8351C121.937 83.0851 122.197 83.4751 122.287 83.9251C124.047 92.9151 124.447 101.885 123.497 110.835L130.797 110.975L130.757 92.7651C130.757 91.2751 131.497 90.5151 132.977 90.4751L133.537 90.4451C133.997 90.4251 134.457 90.6051 134.787 90.9251C135.127 91.2451 135.327 91.6851 135.337 92.1451L135.737 110.805C146.107 114.205 143.807 102.355 143.937 97.3151C143.957 96.7751 144.147 96.3151 144.527 95.9351L149.877 90.5351C130.797 65.6451 98.1472 56.2851 67.7072 63.1151Z"></path><path fill-rule="evenodd" fill="#FFFFFF" opacity="1" d="M19.1981,101.741c7,-15.9998 22.73,-28.8398 38.42,-34.9698c0.47,-0.18 0.87,-0.09 1.22,0.28c19.09,20.18 18.65,49.6898 2.49,70.9398c-0.2,0.26 -0.55,0.36 -0.86,0.25c-17.52,-6.24 -32.67,-18.25 -41.22,-35.01c-0.25,-0.46 -0.26,-1.01 -0.05,-1.49zM44.0981,88.6112c-3.67,0 -6.65,2.99 -6.65,6.67c0,3.69 2.98,6.6798 6.65,6.6798c3.66,0 6.64,-2.9898 6.64,-6.6798c0,-3.68 -2.98,-6.67 -6.64,-6.67z"></path><path fill-rule="evenodd" fill="#71AAC6" opacity="1" d="M90.0404 68.3083C89.4804 67.1283 88.6104 66.8083 87.4204 67.3283L86.6404 67.6783C86.1804 67.8884 85.8104 68.2683 85.6304 68.7583C85.4504 69.2383 85.4704 69.7683 85.6904 70.2383C90.5104 80.6583 92.9204 91.2283 92.9004 101.968L97.4704 104.798C98.1604 92.3884 95.6804 80.2283 90.0404 68.3083Z"></path><path fill-rule="evenodd" fill="#FFFFFF" opacity="1" d="M177.24 71.241C177.39 70.471 177.18 70.341 176.61 70.871C170.54 76.341 165.08 82.381 160.22 88.981C159.86 89.471 159.81 89.981 160.08 90.521L161.15 92.671C161.42 93.221 161.83 93.361 162.37 93.081C164.99 91.731 168.44 88.161 171 91.711C172.04 92.031 172.74 91.941 173.1 91.431L177.24 71.241Z"></path><path fill-rule="evenodd" fill="#71AAC6" opacity="1" d="M107.631 72.2973C107.501 71.8273 107.181 71.4273 106.761 71.1973C106.331 70.9673 105.831 70.9173 105.361 71.0573L104.841 71.2173C103.611 71.5973 102.901 72.8873 103.251 74.1273C106.681 86.5573 107.781 98.6873 106.541 110.537L103.451 126.787C103.241 127.817 103.841 128.837 104.841 129.157L105.321 129.317C106.961 129.857 107.941 129.267 108.251 127.547L111.311 110.837C112.501 97.9173 111.281 85.0773 107.631 72.2973Z"></path><path fill-rule="evenodd" fill="#71AAC6" opacity="1" d="M122.293 83.9221C122.203 83.4721 121.933 83.0821 121.553 82.8321C121.173 82.5821 120.713 82.5021 120.263 82.6021L119.773 82.7121C118.363 83.0421 117.763 83.9221 117.963 85.3521C119.243 94.4221 119.483 102.942 118.693 110.892L117.143 121.482C116.973 122.682 117.793 123.812 118.983 124.012L119.523 124.102C120.503 124.252 121.413 123.602 121.583 122.632L123.493 110.832C124.453 101.882 124.053 92.9121 122.293 83.9221Z"></path><path fill-rule="evenodd" fill="#062642" opacity="1" d="M44.0923 88.6098C40.4223 88.6098 37.4523 91.5998 37.4523 95.2798C37.4523 98.9698 40.4223 101.96 44.0923 101.96C47.7623 101.96 50.7323 98.9698 50.7323 95.2798C50.7323 91.5998 47.7623 88.6098 44.0923 88.6098Z"></path><path fill-rule="evenodd" fill="#71AAC6" opacity="1" d="M135.344 92.1505C135.324 91.6805 135.134 91.2405 134.794 90.9205C134.454 90.6005 134.004 90.4305 133.534 90.4405L132.974 90.4705C131.494 90.5105 130.754 91.2805 130.754 92.7705L130.794 110.97C130.254 113.83 131.064 115.15 133.224 114.95C135.104 114.75 135.944 113.37 135.744 110.8L135.344 92.1505Z"></path><path fill-rule="evenodd" fill="#CBE5EF" opacity="1" d="M144.532 95.9342C144.152 96.3142 143.952 96.7742 143.942 97.3142C143.802 102.364 146.102 114.204 135.742 110.804C135.952 113.364 135.112 114.754 133.222 114.944C131.062 115.154 130.252 113.824 130.802 110.974L123.492 110.834L121.582 122.624C121.412 123.594 120.502 124.254 119.522 124.104L118.982 124.004C117.792 123.814 116.972 122.684 117.142 121.484L118.692 110.894L111.312 110.834L108.252 127.544C107.942 129.264 106.962 129.854 105.312 129.314L104.832 129.164C103.842 128.834 103.242 127.814 103.442 126.784L106.532 110.534C104.852 111.044 103.232 111.244 101.682 111.124C103.322 120.684 100.442 127.214 93.0518 130.694C88.2218 132.964 81.7918 132.314 76.2318 132.204C75.6818 132.194 75.2418 132.414 74.9318 132.874L69.8118 140.534C69.7118 140.674 69.6918 140.854 69.7618 141.004C69.8218 141.164 69.9618 141.274 70.1318 141.314C99.9518 147.694 130.302 138.424 149.362 114.034C155.352 106.354 155.522 98.5242 149.872 90.5342L144.532 95.9342Z"></path><path fill-rule="evenodd" fill="#CBE5EF" opacity="1" d="M163.446 99.8944C163.186 100.004 163.006 100.264 162.986 100.554C162.966 100.844 163.096 101.124 163.336 101.284L169.376 105.344C170.946 106.384 171.586 107.844 171.296 109.714L171.076 111.094C170.756 113.084 169.756 113.534 168.086 112.464L162.696 109.044C162.316 108.814 161.986 108.854 161.686 109.174C160.356 110.604 160.056 111.934 160.776 113.164C164.326 119.254 169.766 125.214 177.086 131.044C177.586 131.444 177.746 131.344 177.546 130.724C173.476 117.824 171.986 104.724 173.096 91.4344C172.736 91.9444 172.036 92.0344 170.996 91.7144C170.556 95.0744 168.036 97.8044 163.446 99.8944Z"></path><path fill-rule="evenodd" fill="#71AAC6" opacity="1" d="M81.8285 111.018L79.4785 122.688C79.4085 123.028 79.5485 123.238 79.8985 123.308C98.8485 126.988 96.4085 105.848 82.6285 110.118C82.1885 110.268 81.9185 110.568 81.8285 111.018Z"></path><path fill-rule="evenodd" fill="#71AAC6" opacity="1" d="M125.142 145.46C125.092 145.15 124.892 144.88 124.612 144.74C124.342 144.6 124.022 144.59 123.742 144.73C122.112 145.51 121.772 146.62 122.702 148.05C124.242 150.38 126.112 152.41 128.332 154.15C128.402 154.23 128.532 154.23 128.612 154.16C128.692 154.08 128.702 153.95 128.622 153.87C126.852 151.33 125.692 148.53 125.142 145.46Z"></path></svg>