<svg class="icon" viewBox="0 0 1026 1024" version="1.1" xmlns="http://www.w3.org/2000/svg" width="200" height="200"><path d="M787.2 711.04a32 32 0 0 1-32-32 32 32 0 0 1 32-32 156.8 156.8 0 0 0 136.32-80.64A200.96 200.96 0 0 0 960 448a198.4 198.4 0 0 0-198.4-198.4 35.2 35.2 0 0 1-30.72-15.36 256 256 0 0 0-460.16 49.92 32.64 32.64 0 0 1-31.36 21.76h-7.68a170.88 170.88 0 0 0 0 341.76h28.8a32 32 0 0 1 32 32 32 32 0 0 1-32 32h-25.6a234.88 234.88 0 0 1-13.44-469.12 320 320 0 0 1 556.8-55.04A263.04 263.04 0 0 1 1024 448a256 256 0 0 1-49.28 152.32 218.88 218.88 0 0 1-187.52 110.72z" fill="#000000"></path><path d="M512 948.48a32.64 32.64 0 0 1-32-32V576a32 32 0 0 1 32-32 32 32 0 0 1 32 32v340.48a32 32 0 0 1-32 32z" fill="#000000"></path><path d="M512 960a32 32 0 0 1-22.4-9.6l-140.8-141.44a32 32 0 1 1 44.8-46.08l142.08 139.52A32 32 0 0 1 512 960z" fill="#000000"></path><path d="M512 960a32.64 32.64 0 0 1-23.04-9.6 32.64 32.64 0 0 1 0-45.44l144.64-142.08a31.36 31.36 0 0 1 44.8 0 32 32 0 0 1 0 45.44l-142.72 139.52A31.36 31.36 0 0 1 512 960z" fill="#000000"></path></svg>