<svg xmlns="http://www.w3.org/2000/svg" xmlns:xlink="http://www.w3.org/1999/xlink" width="28" height="28" viewBox="0 0 28 28" fill="none"><g opacity="1"  transform="translate(0 0)  rotate(0)"><mask id="bg-mask-0" fill="white"><use transform="translate(0 0)  rotate(0)" xlink:href="#path_0"></use></mask><g mask="url(#bg-mask-0)" ><g opacity="1"  transform="translate(3.5 2.333812713623047)  rotate(0)"><path  id="路径 1" style="fill:#000000; opacity:1;" d="M19.2226,5.84171l-7.88,-4.64l0.5074,-0.86171l-0.4811,0.87667c-0.3259,-0.17887 -0.5574,-0.23015 -0.9185,-0.21202c-0.2945,0.01479 -0.47412,0.06471 -0.73476,0.20951l-0.48564,-0.87416l0.5074,0.86171l-7.88,4.64c-0.00749,0.00441 -0.01504,0.00873 -0.02265,0.01294c-0.32989,0.18283 -0.492,0.35286 -0.65968,0.6783c-0.1322,0.25658 -0.17507,0.4263 -0.17507,0.71705v8.5c0,0.3493 0.06078,0.5529 0.24172,0.8416c0.16586,0.2646 0.30514,0.3976 0.5849,0.5493c0.01985,0.01073 0.03931,0.02213 0.05838,0.0342l7.88,4.99l-0.535,0.8449l0.47807,-0.8783c0.28128,0.1531 0.47553,0.2008 0.79193,0.2008c0.3164,0 0.5106,-0.0477 0.7919,-0.2008l0.4781,0.8783l-0.535,-0.8449l7.88,-4.99c0.01907,-0.01207 0.03853,-0.02347 0.0584,-0.0342c0.2797,-0.1517 0.419,-0.2847 0.5849,-0.5493c0.1809,-0.2887 0.2417,-0.4923 0.2417,-0.8416v-8.5c0.0034,-0.32238 -0.0438,-0.50216 -0.1913,-0.77183c-0.1633,-0.29877 -0.3155,-0.4562 -0.6206,-0.63323c-0.0568,-0.03295 -0.10983,-0.07113 -0.1591,-0.11453c-0.04927,-0.0434 -0.09383,-0.09119 -0.1337,-0.14337c-0.03987,-0.05218 -0.07423,-0.10775 -0.1031,-0.1667c-0.02893,-0.05895 -0.05183,-0.12016 -0.0687,-0.18362c-0.01687,-0.06346 -0.02737,-0.12795 -0.0315,-0.19348c-0.00413,-0.06553 -0.00187,-0.13084 0.0068,-0.19592c0.00873,-0.06508 0.02373,-0.12868 0.045,-0.19081c0.0212,-0.06213 0.0483,-0.1216 0.0813,-0.17839c0.04393,-0.07575 0.0969,-0.14455 0.1589,-0.20638c0.06207,-0.06183 0.13103,-0.1146 0.2069,-0.15831c0.07593,-0.04371 0.1562,-0.07687 0.2408,-0.0995c0.0846,-0.02262 0.1707,-0.03393 0.2583,-0.03393h0.04v1zM20.2374,4.11829c0.075,0.04417 0.14307,0.09722 0.2042,0.15916c0.0612,0.06195 0.1134,0.1307 0.1566,0.20626c0.0432,0.07557 0.07597,0.15541 0.0983,0.23954c0.02233,0.08413 0.0335,0.16971 0.0335,0.25675c0,0.06566 -0.0064,0.13069 -0.0192,0.19509c-0.0128,0.0644 -0.03177,0.12693 -0.0569,0.18759c-0.02513,0.06067 -0.05593,0.1183 -0.0924,0.17289c-0.03653,0.05459 -0.078,0.10511 -0.1244,0.15154c-0.0464,0.04643 -0.0969,0.08788 -0.1515,0.12436c-0.0546,0.03648 -0.11223,0.06728 -0.1729,0.09241c-0.06067,0.02513 -0.1232,0.04409 -0.1876,0.0569c-0.0644,0.01281 -0.12943,0.01922 -0.1951,0.01922h-0.04v-1l0.5019,-0.86494c0.5458,0.31671 1.079,0.86823 1.3717,1.40377c0.2648,0.48438 0.4425,1.16104 0.4364,1.73117v8.5c0,0.6415 -0.222,1.3851 -0.5471,1.9037c-0.2985,0.4763 -0.8116,0.9664 -1.3263,1.2454l-0.4766,-0.8791l0.535,0.8449l-7.88,4.99c-0.0186,0.01173 -0.03757,0.02287 -0.0569,0.0334c-0.5087,0.2769 -1.1895,0.4442 -1.7481,0.4442c-0.55856,0 -1.23935,-0.1673 -1.74807,-0.4442c-0.01935,-0.01053 -0.03832,-0.02167 -0.05693,-0.0334l-7.88,-4.99l0.535,-0.8449l-0.47662,0.8791c-0.51463,-0.279 -1.02776,-0.7691 -1.32629,-1.2453c-0.32508,-0.5187 -0.54709,-1.2623 -0.54709,-1.9038v-8.5c0,-0.53944 0.15994,-1.17262 0.39718,-1.63308c0.29949,-0.58127 0.871,-1.18067 1.46807,-1.51157l0.48475,0.87465l-0.5074,-0.86171l7.88,-4.64c0.0072,-0.00424 0.01445,-0.00839 0.02176,-0.01245c0.4679,-0.25995 1.08967,-0.43276 1.60564,-0.45867c0.6306,-0.03167 1.4046,0.13978 1.9811,0.45616c0.00887,0.00485 0.01763,0.00984 0.0263,0.01496z"></path><path  id="路径 2" style="fill:#000000; opacity:1;" d="M10.5,14.1662c1.3807,0 2.5,-1.1193 2.5,-2.5c0,-1.3807 -1.1193,-2.50001 -2.5,-2.50001c-1.38071,0 -2.5,1.11931 -2.5,2.50001c0,1.3807 1.11929,2.5 2.5,2.5zM10.5,16.1662c-2.48528,0 -4.5,-2.0147 -4.5,-4.5c0,-2.48529 2.01472,-4.50001 4.5,-4.50001c2.4853,0 4.5,2.01472 4.5,4.50001c0,2.4853 -2.0147,4.5 -4.5,4.5z"></path></g></g></g><defs><rect id="path_0" x="0" y="0" width="28" height="28" /></defs></svg>