<svg width="1024" height="1024" xmlns="http://www.w3.org/2000/svg" version="1.1" class="icon"><g><g id="svg_4"><path id="svg_1" fill="#FFDC00" d="m791.76989,124.87219l-15.41743,-94.0087s-10.15294,95.1368 -122.2113,197.04223c-51.51676,47.00435 -142.51718,98.52111 -142.51718,98.52111l213.96379,370.39426s20.30588,61.29367 -6.76863,118.82699c-31.58692,67.31023 -95.1368,108.67405 -217.3481,112.05836c-108.67405,3.00828 -183.50497,-61.29367 -197.04223,-149.28581c-13.53725,-87.24007 43.244,-154.55029 108.67405,-180.12066c61.29367,-23.69019 163.19909,-13.53725 163.19909,-13.53725l-237.65398,-400.85308l3.38431,-40.61176s76.33506,9.7769 210.57948,-16.92157c61.29367,-12.40915 112.81043,-32.71503 151.16598,-51.51676c-58.66143,-25.57037 -123.71544,-39.85969 -191.77774,-39.85969c-264.35245,0 -479.06831,214.33983 -479.06831,479.06831c0,264.35245 214.33983,479.06831 479.06831,479.06831c264.35245,0 479.06831,-214.33983 479.06831,-479.06831c-0.75207,-160.56685 -78.9673,-301.95593 -199.29843,-389.196z"/><path id="svg_2" fill="#0AC094" d="m776.35246,30.86349s-88.36817,68.0623 -224.11673,95.1368c-134.24442,26.69847 -210.57948,16.92157 -210.57948,16.92157l-3.38431,40.61176l237.65398,401.22911s-101.90543,-10.15294 -163.19909,13.53725c-65.43005,25.19433 -122.2113,92.88059 -108.67405,180.12066c13.53725,88.36817 88.36817,152.29409 197.04223,149.28581c122.2113,-3.38431 185.76118,-44.74814 217.3481,-112.05836c27.0745,-57.90936 6.76863,-118.82699 6.76863,-118.82699l-213.96379,-370.39426s91.00042,-51.51676 142.51718,-98.52111c112.4344,-101.90543 122.58734,-197.04223 122.58734,-197.04223z"/></g></g></svg>